<svg width="44" height="44" viewBox="0 0 44 44" fill="none" xmlns="http://www.w3.org/2000/svg">
<path d="M0.00699099 21.4884V10.1415C0.00699099 8.30993 1.13778 7.14844 2.92049 7.14844H22.5582C23.2922 7.14844 23.7056 7.5353 23.6628 8.17502C23.6505 8.39455 23.561 8.60213 23.4106 8.75932C23.2602 8.91652 23.0592 9.0127 22.8448 9.03006C22.7129 9.04167 22.58 9.03274 22.4472 9.03274H3.07604C2.7964 9.03274 2.5185 9.02202 2.26595 9.18462C1.94262 9.39369 1.85698 9.69658 1.85786 10.0709C1.86397 14.7428 1.86223 19.4147 1.86223 24.0848C1.86223 25.4714 1.87096 26.8581 1.85523 28.2438C1.85174 28.5405 1.93214 28.6128 2.21789 28.6128C14.0737 28.6057 25.9296 28.6048 37.7854 28.6146C38.135 28.6146 38.197 28.4976 38.1883 28.1768C38.1718 27.4386 38.173 26.7001 38.1918 25.962C38.2014 25.5072 38.4365 25.1846 38.8673 25.0658C39.2719 24.9541 39.6232 25.0837 39.874 25.4411C40.0077 25.6323 40.0383 25.8556 40.0383 26.0844C40.0383 28.4047 40.0531 30.7259 40.0339 33.0471C40.0199 34.7491 38.835 35.8695 37.0802 35.8704C32.8 35.8757 28.5197 35.8775 24.2386 35.8641C23.8515 35.8632 23.7466 35.9285 23.8305 36.3466C24.149 37.9879 24.8072 39.5407 25.7609 40.9005C25.8911 41.0855 26.0292 41.1391 26.2372 41.1355C26.8839 41.123 27.5314 41.1266 28.1781 41.1328C28.7103 41.1373 29.0895 41.492 29.1201 41.9986C29.1533 42.5293 28.802 42.9483 28.2637 43.0127C28.1772 43.0234 28.0881 43.0162 27.9998 43.0162H12.0245C11.3403 43.0162 10.9558 42.6919 10.9348 42.1139C10.9147 41.5385 11.2756 41.14 11.8454 41.1337C12.492 41.1248 13.1396 41.1168 13.7862 41.1391C14.0405 41.1471 14.1795 41.0497 14.321 40.846C15.2823 39.4648 15.9045 37.9423 16.2252 36.2805C16.2951 35.9142 16.1824 35.8659 15.8582 35.8659C11.5771 35.8766 7.29685 35.8722 3.01661 35.874C2.17944 35.874 1.42005 35.6711 0.803964 35.0466C0.225459 34.4596 0 33.7449 0 32.9238C0.00611712 29.1114 0.00262162 25.2981 0.00262162 21.4857L0.00699099 21.4884ZM19.9969 30.4802C14.0868 30.4802 8.17509 30.4828 2.26421 30.4712C1.93476 30.4712 1.83688 30.5499 1.85349 30.8912C1.8832 31.5076 1.86223 32.1259 1.86223 32.7433C1.86223 33.7082 2.12089 33.9754 3.05768 33.9754H36.9797C37.082 33.9754 37.186 33.9798 37.2882 33.9736C37.8545 33.9396 38.1752 33.6028 38.1796 33.0203C38.1874 32.343 38.1568 31.6631 38.1909 30.9876C38.2119 30.5713 38.0895 30.4694 37.6849 30.4694C31.788 30.4846 25.8938 30.4802 19.9969 30.4802ZM23.6759 41.1177C22.7531 39.5362 22.1667 37.869 21.9307 36.0803C21.901 35.8597 21.7734 35.874 21.6214 35.874C20.564 35.8757 19.504 35.8811 18.4457 35.8704C18.208 35.8677 18.1294 35.9329 18.0962 36.1876C17.882 37.769 17.3786 39.2951 16.6123 40.6861C16.5398 40.8201 16.4035 40.9381 16.4376 41.1177H23.6759Z" fill="#006CAD"/>
<path d="M34.5883 23.3371H28.3244C26.6264 23.3353 25.4685 22.155 25.4668 20.4244V10.0755C25.4668 8.35204 26.6404 7.15391 28.3244 7.14945C29.0855 7.14766 29.0995 7.14677 29.0829 6.37035C29.054 5.0123 29.1808 3.69892 29.9402 2.52134C31.154 0.636148 33.4348 -0.33772 35.6675 0.106328C36.7289 0.314779 37.7046 0.8439 38.4688 1.6253C39.2329 2.4067 39.7502 3.40447 39.9539 4.48963C40.0657 5.08288 40.0465 5.68775 40.0439 6.29083C40.0413 7.14498 40.0439 7.14677 40.8583 7.15034C41.4788 7.15302 42.0486 7.31831 42.5502 7.69892C43.3305 8.29128 43.681 9.1088 43.6836 10.08C43.6923 13.5296 43.7045 16.9793 43.6792 20.4289C43.6661 22.2078 42.496 23.338 40.764 23.3389H34.5883V23.3371ZM34.5446 21.4617C36.5746 21.4617 38.6046 21.4635 40.6346 21.4617C41.5286 21.4608 41.8318 21.149 41.8318 20.2466V10.2551C41.8318 9.35718 41.5172 9.03464 40.6364 9.03464H28.5018C27.6191 9.03464 27.2993 9.35986 27.2993 10.2533V20.243C27.2993 21.1428 27.6095 21.459 28.5009 21.4599C30.5152 21.4617 32.5312 21.4599 34.5455 21.4599V21.4608L34.5446 21.4617ZM34.521 7.14855C35.6247 7.14855 36.7275 7.1414 37.8304 7.15481C38.0943 7.15838 38.1983 7.09048 38.1834 6.80457C38.1616 6.36856 38.1747 5.93077 38.1782 5.49387C38.1887 4.23231 37.6713 3.24415 36.6585 2.55619C35.4132 1.71008 34.0849 1.63771 32.775 2.36856C31.5376 3.05831 30.9145 4.16262 30.9504 5.62968C30.9608 6.02101 30.9696 6.41413 30.946 6.80457C30.9294 7.09048 31.036 7.15838 31.299 7.15481C32.373 7.1414 33.447 7.14945 34.5201 7.14945L34.521 7.14855Z" fill="#FC8F01"/>
<path d="M34.5578 18.5318C32.8031 18.5318 31.3708 17.1175 31.3595 15.3752C31.3464 13.633 32.8145 12.1784 34.5779 12.1856C36.3318 12.1945 37.7588 13.6071 37.7728 15.3502C37.7868 17.0987 36.3379 18.5318 34.557 18.5309L34.5578 18.5318ZM34.5701 14.086C33.8081 14.0877 33.199 14.6703 33.213 15.3841C33.2261 16.0784 33.8334 16.6448 34.5657 16.6448C35.3225 16.6448 35.9324 16.0578 35.9176 15.3422C35.9036 14.6372 35.3094 14.0842 34.5701 14.086Z" fill="#FC8F01"/>
</svg>
