<svg preserveAspectRatio="none" width="100%" height="100%" overflow="visible" style="display: block;" viewBox="0 0 41 40" fill="none" xmlns="http://www.w3.org/2000/svg">
<g id="download-3 2" clip-path="url(#clip0_0_184)">
<path id="Vector" d="M40.4918 30.0226C40.3068 30.3106 40.3398 30.6526 40.2748 30.9666C39.3248 35.5916 35.5348 39.1096 30.8588 39.6916C25.0358 40.4176 19.7888 36.6706 18.5758 30.9186C17.3368 25.0486 21.3688 19.0446 27.2738 17.9656C33.3918 16.8466 39.0538 20.6216 40.2898 26.6386C40.3578 26.9686 40.3418 27.3156 40.4918 27.6286V30.0226ZM29.4268 38.0956C34.6018 38.0956 38.8128 33.9336 38.8158 28.8156C38.8178 23.6386 34.6078 19.4216 29.4368 19.4216C24.2758 19.4216 20.0638 23.6136 20.0498 28.7646C20.0358 33.9096 24.2418 38.0956 29.4268 38.0956Z" fill="var(--fill-0, #005FAF)"/>
<path id="Vector_2" d="M15.399 11.9072C11.157 11.9072 6.91301 11.9132 2.66901 11.8972C2.30301 11.8952 2.24901 12.0022 2.24901 12.3342C2.26101 16.9232 2.25701 21.5122 2.25701 26.1012C2.25701 27.2072 3.08101 28.0272 4.19401 28.0272H13.971C14.607 28.0272 14.959 28.3232 14.961 28.8572C14.962 29.3872 14.602 29.7032 13.981 29.7042C10.656 29.7062 7.33101 29.7112 4.00501 29.7032C2.17301 29.6982 0.581014 28.0802 0.579014 26.2452C0.577014 19.5412 0.579014 12.8372 0.579014 6.13316C0.579014 4.08716 2.12901 2.53516 4.18101 2.52816C5.40501 2.52416 6.62901 2.51916 7.85201 2.53416C8.11601 2.53716 8.19601 2.46216 8.18001 2.20316C8.15801 1.84516 8.16801 1.48416 8.17601 1.12616C8.18901 0.503156 8.50601 0.155156 9.04401 0.161156C9.57001 0.167156 9.85001 0.499156 9.85201 1.12116C9.85201 1.47916 9.86801 1.83916 9.84601 2.19716C9.83001 2.45916 9.91201 2.53716 10.179 2.53416C11.256 2.51916 12.334 2.52716 13.411 2.52716C15.791 2.52716 18.173 2.52016 20.554 2.53516C20.874 2.53816 20.958 2.44716 20.937 2.14216C20.9169 1.75678 20.9155 1.37066 20.933 0.985156C20.948 0.491156 21.288 0.161156 21.767 0.160156C22.253 0.160156 22.592 0.480156 22.606 0.975156C22.618 1.40116 22.622 1.82716 22.603 2.25216C22.593 2.48716 22.677 2.53416 22.896 2.53216C24.146 2.52216 25.396 2.52116 26.646 2.52916C28.336 2.53916 29.779 3.68116 30.148 5.28916C30.224 5.61516 30.23 5.94916 30.231 6.28016V13.2232C30.231 13.3432 30.231 13.4632 30.218 13.5822C30.161 14.1222 29.838 14.4152 29.332 14.3952C28.859 14.3752 28.56 14.0452 28.553 13.5222C28.548 13.1102 28.529 12.6952 28.56 12.2852C28.583 11.9652 28.472 11.8992 28.168 11.9002C23.912 11.9102 19.656 11.9072 15.399 11.9072ZM15.383 10.2312H28.228C28.389 10.2312 28.564 10.2912 28.561 9.99516C28.545 8.66516 28.575 7.33516 28.546 6.00716C28.5322 5.5365 28.3393 5.08886 28.0066 4.75563C27.674 4.42241 27.2266 4.22873 26.756 4.21416C25.453 4.18916 24.149 4.21216 22.847 4.20316C22.647 4.20116 22.601 4.26616 22.607 4.45316C22.618 4.93116 22.614 5.41016 22.609 5.88816C22.605 6.40016 22.262 6.77216 21.793 6.78716C21.311 6.80116 20.943 6.42316 20.934 5.88916C20.927 5.42316 20.922 4.95816 20.937 4.49316C20.945 4.27516 20.893 4.18616 20.657 4.20216C20.339 4.22216 20.019 4.20716 19.7 4.20716C16.549 4.20716 13.397 4.21116 10.245 4.20016C9.94001 4.20016 9.82401 4.26716 9.84501 4.59116C9.87501 5.02816 9.85001 5.46816 9.85501 5.90716C9.85501 6.08316 9.84101 6.25416 9.73301 6.40016C9.50901 6.70516 9.21701 6.85016 8.83601 6.75416C8.43101 6.65116 8.20001 6.37116 8.18101 5.91116C8.16101 5.43316 8.16701 4.95316 8.18001 4.47516C8.18501 4.27316 8.13601 4.19916 7.91801 4.20116C6.62801 4.21116 5.33801 4.18816 4.04801 4.21216C3.05701 4.23116 2.25901 5.08716 2.25801 6.08216C2.25701 7.33216 2.27101 8.58216 2.24801 9.83216C2.24201 10.1662 2.32801 10.2392 2.65801 10.2392C6.90001 10.2262 11.141 10.2312 15.383 10.2312Z" fill="var(--fill-0, #333333)"/>
<path id="Vector_3" d="M26.2634 28.028C26.9014 28.028 27.5404 28.013 28.1774 28.035C28.4714 28.045 28.5604 27.971 28.5564 27.665C28.5374 26.363 28.5454 25.059 28.5504 23.757C28.5534 23.331 28.8024 23.002 29.1544 22.921C29.5544 22.829 29.9304 22.981 30.1144 23.315C30.2404 23.545 30.2334 23.802 30.2344 24.053C30.2344 25.249 30.2454 26.446 30.2274 27.642C30.2224 27.956 30.3104 28.039 30.6224 28.035C31.8724 28.017 33.1224 28.027 34.3714 28.028C34.9744 28.028 35.3694 28.366 35.3634 28.871C35.3574 29.379 34.9674 29.703 34.3524 29.704C33.1024 29.706 31.8524 29.714 30.6024 29.698C30.3074 29.694 30.2224 29.768 30.2264 30.07C30.2409 31.2796 30.2429 32.4893 30.2324 33.699C30.2284 34.355 29.9444 34.711 29.4354 34.738C28.9094 34.765 28.5524 34.414 28.5504 33.843C28.5454 32.593 28.5394 31.344 28.5554 30.095C28.5594 29.789 28.4854 29.692 28.1654 29.696C26.8754 29.716 25.5854 29.708 24.2964 29.702C23.8524 29.699 23.5364 29.465 23.4364 29.07C23.3424 28.695 23.4714 28.391 23.7814 28.165C23.9394 28.05 24.1184 28.025 24.3094 28.025C24.9614 28.03 25.6124 28.027 26.2644 28.027L26.2634 28.028Z" fill="var(--fill-0, #005FAF)"/>
</g>
<defs>
<clipPath id="clip0_0_184">
<rect width="41" height="40" fill="white"/>
</clipPath>
</defs>
</svg>
