<svg width="45" height="46" viewBox="0 0 45 46" fill="none" xmlns="http://www.w3.org/2000/svg">
<path d="M0 25.2798C0.340457 24.6671 0.895938 24.585 1.50518 24.655C1.87848 24.6975 2.03378 24.5987 2.09052 24.1685C2.46084 21.3574 2.86103 18.5509 3.27316 15.7474C3.47475 14.3792 4.70666 13.3301 6.07596 13.321C7.0361 13.3149 7.99625 13.3058 8.9564 13.3271C9.27595 13.3347 9.37152 13.2313 9.35061 12.9151C9.32398 12.534 9.32398 12.1514 9.35061 11.7703C9.376 11.451 9.25056 11.3902 8.96685 11.3932C7.91711 11.4085 6.86737 11.4008 5.81763 11.3993C4.56331 11.3963 3.78086 10.592 3.77937 9.31041C3.77937 8.74485 3.77489 8.18082 3.77937 7.61526C3.79 7.15461 3.96247 6.7131 4.26548 6.37084C4.56849 6.02858 4.98196 5.80825 5.43088 5.74983C5.63961 5.72602 5.8495 5.71434 6.05953 5.71486H14.6068C16.1762 5.71486 16.9064 6.4659 16.9064 8.07591C16.9064 8.48944 16.9108 8.90145 16.9064 9.31193C16.8914 10.5784 16.0821 11.3963 14.8427 11.3993C13.7631 11.4024 12.6835 11.41 11.6039 11.3932C11.3127 11.3887 11.2112 11.4632 11.2306 11.7688C11.256 12.164 11.2605 12.5639 11.2306 12.9592C11.2067 13.2815 11.3366 13.3301 11.6129 13.3241C12.4968 13.3088 13.3868 13.3803 14.2663 13.3073C15.9596 13.1659 17.2677 14.4901 17.4768 16.2355C17.7933 18.9127 18.2234 21.5779 18.5907 24.2491C18.6295 24.5303 18.7132 24.6413 18.9999 24.696C19.4415 24.7677 19.843 24.9992 20.1305 25.3481C20.4179 25.6969 20.5721 26.1396 20.5648 26.5949C20.5707 32.5789 20.5693 38.5628 20.5663 44.5468C20.5663 45.1154 20.2915 45.4772 19.8092 45.5882C19.6016 45.6292 19.3865 45.5988 19.1978 45.5016C19.0091 45.4044 18.8575 45.2461 18.7669 45.0516C18.6639 44.8235 18.6728 44.5757 18.6728 44.3309V34.4367C18.6728 33.2311 18.6564 32.024 18.6833 30.8183C18.6908 30.458 18.5773 30.4048 18.2577 30.4048C12.6641 30.4139 7.07045 30.4048 1.47681 30.42C0.894445 30.4231 0.371814 30.3775 0 29.8605V29.1278C0.294166 28.6139 0.736163 28.474 1.30807 28.4755C4.81418 28.4953 8.32028 28.4862 11.8264 28.4862C13.9841 28.4862 16.1418 28.4816 18.2995 28.4907C18.5713 28.4907 18.7027 28.4497 18.6788 28.1274C18.6562 27.7157 18.6552 27.3031 18.6758 26.8914C18.6833 26.6618 18.6191 26.5569 18.3742 26.5736C18.0606 26.5979 17.747 26.5979 17.432 26.5979C12.022 26.5934 6.61501 26.5797 1.20504 26.5873C0.652542 26.5873 0.258329 26.4125 0 25.9184L0 25.2798ZM10.3182 24.6413C12.3416 24.6413 14.3664 24.6367 16.3912 24.6443C16.6525 24.6443 16.7421 24.6246 16.6943 24.3023C16.3016 21.6341 15.9328 18.9614 15.5565 16.2902C15.4579 15.5908 15.0757 15.2488 14.3798 15.2473H6.23872C5.59663 15.2473 5.21735 15.5924 5.12477 16.2446C4.74399 18.8991 4.36471 21.5535 3.97797 24.208C3.93317 24.5182 3.9481 24.655 4.33336 24.6489C6.32831 24.6261 8.32327 24.6398 10.3167 24.6398L10.3182 24.6413ZM10.3182 9.47005C11.7413 9.47005 13.1643 9.46092 14.5874 9.47765C14.9084 9.48221 15.0577 9.41683 15.0204 9.055C14.9893 8.7355 14.9893 8.41365 15.0204 8.09416C15.0548 7.7308 14.9308 7.6335 14.5754 7.63502C12.0743 7.65022 9.5731 7.63806 7.07045 7.64718C6.61501 7.6487 6.00279 7.44042 5.74595 7.74144C5.52047 8.00598 5.70713 8.61563 5.66532 9.06716C5.62948 9.44116 5.78776 9.48069 6.09835 9.47765C7.50498 9.46244 8.91309 9.47157 10.3197 9.47157L10.3182 9.47005ZM45 29.4759V41.6141C45.0008 42.6707 44.59 43.6845 43.8577 44.4332C43.1255 45.1819 42.1315 45.6044 41.0937 45.608C36.8052 45.608 32.5166 45.611 28.228 45.608C27.1988 45.6 26.214 45.1799 25.4867 44.4385C24.7593 43.6971 24.3478 42.6939 24.3412 41.646V17.2799C24.3408 16.2321 24.7484 15.2268 25.4747 14.4844C26.2011 13.742 27.1869 13.3231 28.2161 13.3195H41.1281C43.2365 13.3195 44.997 15.1089 44.997 17.2449V29.4759H45ZM26.2361 26.4261C26.2361 29.4957 26.2435 32.5637 26.2256 35.6332C26.2241 36.0178 26.3182 36.1014 26.6885 36.1014C32.0134 36.0862 37.3367 36.0862 42.6616 36.1014C43.0439 36.1014 43.1155 35.9965 43.114 35.6256C43.1021 29.5337 43.1066 23.4418 43.1066 17.3483C43.1066 16.1503 42.2166 15.2488 41.0325 15.2473H28.2997C27.1081 15.2473 26.2361 16.1382 26.2361 17.3544V26.4261ZM34.6877 38.0171C32.0179 38.0171 29.348 38.0262 26.6796 38.0079C26.2943 38.0049 26.2167 38.1144 26.2256 38.4853C26.251 39.5374 26.2316 40.5909 26.2361 41.6445C26.2405 42.7194 27.1514 43.6772 28.1997 43.6787C32.5166 43.6863 36.835 43.6863 41.1534 43.6787C42.1778 43.6772 43.0991 42.7133 43.1036 41.6749C43.1081 40.591 43.0872 39.507 43.1155 38.423C43.1245 38.0642 43.011 38.0094 42.6915 38.0125C40.0216 38.0247 37.3532 38.0186 34.6848 38.0186L34.6877 38.0171Z" fill="#FC8F01"/>
<path d="M33.6364 0C36.6407 0.0592924 39.3076 1.01557 41.5923 3.02239C42.097 3.46632 42.1746 4.06381 41.7864 4.50166C41.3982 4.94103 40.8696 4.93495 40.3529 4.48646C36.4362 1.08399 30.8888 1.07639 26.9288 4.4743C26.5988 4.76012 26.2538 4.93039 25.8223 4.74795C25.6666 4.68949 25.53 4.58793 25.4279 4.4547C25.3258 4.32148 25.2622 4.16188 25.2444 3.99388C25.1936 3.6138 25.3385 3.31733 25.6177 3.06648C27.3499 1.51576 29.3627 0.568599 31.6295 0.177877C32.2931 0.0678868 32.964 0.00842961 33.6364 0ZM33.7797 5.67231C35.4581 5.67991 36.9946 6.14512 38.3535 7.16526C38.9149 7.58487 39.0463 8.14282 38.7118 8.6202C38.3684 9.11279 37.7935 9.14775 37.2156 8.71294C35.2057 7.20023 32.2641 7.20783 30.1989 8.73423C29.4956 9.25418 28.7057 9.00484 28.5653 8.21428C28.4862 7.7673 28.7087 7.45716 29.0387 7.20327C30.2811 6.24395 31.6966 5.77113 33.2406 5.67383C33.4198 5.66166 33.599 5.67079 33.7782 5.67079L33.7797 5.67231Z" fill="#FC8F01"/>
<path d="M10.3148 18.9731C9.70105 18.9731 9.08733 18.9807 8.47361 18.9731C7.97637 18.9655 7.61501 18.6325 7.56125 18.152C7.52599 17.916 7.58054 17.6752 7.71375 17.4788C7.84696 17.2824 8.04879 17.1452 8.278 17.0952C8.40791 17.0617 8.5438 17.0496 8.67669 17.0496C9.78318 17.045 10.8912 17.0419 11.9991 17.0496C12.5964 17.0526 12.9309 17.2761 13.0772 17.749C13.1242 17.8858 13.1386 18.032 13.1194 18.1757C13.1003 18.3193 13.048 18.4562 12.9668 18.5753C12.8857 18.6944 12.7781 18.7922 12.6527 18.8608C12.5273 18.9295 12.3878 18.9669 12.2455 18.97C11.6019 18.9883 10.9583 18.9731 10.3148 18.9746V18.9731Z" fill="#FC8F01"/>
<path d="M33.6469 28.4842C34.5309 28.4842 35.4164 28.4873 36.3019 28.4842C36.8484 28.4797 37.3472 28.0342 37.3472 27.5568C37.3501 27.084 36.8514 26.6416 36.2974 26.6401C35.1432 26.6355 33.9874 26.6462 32.8331 26.6355C31.3996 26.6234 30.1752 25.5743 29.9437 24.1787C29.6764 22.5672 31.0144 20.9647 32.6838 20.8933C32.9959 20.8781 33.3901 21.0271 33.5962 20.8325C33.8052 20.6303 33.641 20.2243 33.6693 19.9096C33.7171 19.3623 34.1472 18.9488 34.6474 18.9716C35.1476 18.9959 35.5224 19.3958 35.5613 19.9248C35.5837 20.238 35.4149 20.6652 35.6449 20.837C35.8539 20.9921 36.2496 20.8902 36.5647 20.8933C37.0888 20.8978 37.6145 20.8902 38.1386 20.8933C38.8284 20.8994 39.248 21.2779 39.2406 21.8784C39.2331 22.4805 38.8494 22.818 38.1565 22.818C36.4766 22.821 34.7967 22.818 33.1168 22.818H32.8466C32.3135 22.8393 31.7923 23.303 31.7908 23.7576C31.7879 24.2137 32.306 24.7002 32.8406 24.7062C34.0098 24.7199 35.1805 24.7093 36.3497 24.7108C37.7981 24.7138 39.0987 25.8708 39.2316 27.271C39.366 28.6849 38.3297 30.0821 36.9096 30.3649C36.5767 30.4302 36.2228 30.415 35.8793 30.4014C35.618 30.3922 35.5314 30.485 35.5568 30.7419C35.5732 30.9243 35.5657 31.1068 35.5583 31.2892C35.5344 31.8411 35.1715 32.2197 34.6593 32.2409C34.1307 32.2607 33.7201 31.8837 33.6708 31.3287C33.6663 31.2831 33.6708 31.2375 33.6693 31.1919C33.6574 30.6689 33.4006 30.4074 32.8973 30.4074C32.2373 30.4074 31.5773 30.4105 30.9173 30.4074C30.335 30.4044 29.9139 30.0213 29.8915 29.4846C29.8691 28.9373 30.2991 28.4964 30.9024 28.4873C31.8177 28.4736 32.7316 28.4842 33.6469 28.4842Z" fill="#FC8F01"/>
<path d="M36.4627 40.3508C36.463 40.5377 36.4267 40.7227 36.356 40.8951C36.2853 41.0675 36.1816 41.2239 36.0509 41.3551C35.9203 41.4863 35.7653 41.5897 35.595 41.6593C35.4247 41.7289 35.2426 41.7632 35.0591 41.7604C34.6889 41.7576 34.335 41.6054 34.0749 41.3371C33.8149 41.0689 33.6699 40.7065 33.6719 40.3296C33.6758 39.9522 33.8266 39.5919 34.0912 39.3276C34.3557 39.0633 34.7124 38.9167 35.083 38.92C35.861 38.9245 36.4717 39.5556 36.4642 40.3493L36.4627 40.3508Z" fill="#FC8F01"/>
</svg>
