<svg width="33" height="40" viewBox="0 0 33 40" fill="none" xmlns="http://www.w3.org/2000/svg">
<path d="M3.31433 39.9993C3.23314 39.866 3.08385 39.8953 2.9673 39.862C1.17583 39.3353 0.00116405 37.7593 0.00116405 35.87V7.08623C0.00116405 6.07424 -0.00145506 5.06358 0.00116405 4.05426C0.00902136 1.85027 1.81751 0.0129528 3.9822 0.0129528C6.69166 0.0102861 9.39982 0.0129528 12.1093 0.0129528C12.6973 0.0129528 13.0351 0.294284 13.043 0.79028C13.0508 1.28894 12.6881 1.61027 12.0962 1.61161C9.42601 1.61427 6.75583 1.61161 4.08566 1.61294C2.66086 1.61294 1.57132 2.71293 1.57786 4.15959C1.57917 4.62092 1.38536 5.23958 1.65906 5.49958C1.8987 5.72891 2.50241 5.56758 2.94504 5.56891C5.3939 5.57158 7.84014 5.56891 10.289 5.57158C10.4579 5.57158 10.6321 5.57158 10.7945 5.61158C10.9679 5.65441 11.1208 5.75869 11.2256 5.90575C11.3305 6.05281 11.3805 6.23306 11.3668 6.41424C11.3644 6.60247 11.2938 6.78318 11.1687 6.92172C11.0435 7.06025 10.8725 7.14685 10.6884 7.1649C10.5706 7.17823 10.4527 7.17157 10.3348 7.17157C7.5468 7.17157 4.75877 7.17823 1.97204 7.16357C1.64334 7.16223 1.56608 7.24357 1.56739 7.5769C1.57786 15.4915 1.57786 23.4074 1.56739 31.3234C1.56739 31.6701 1.66429 31.7287 1.9799 31.7274C8.28932 31.7181 14.5974 31.7167 20.9068 31.7274C21.2277 31.7274 21.3154 31.6607 21.3128 31.3207C21.2945 29.2687 21.3023 27.2168 21.305 25.1648C21.305 24.5328 21.6179 24.1994 22.164 24.2301C22.3487 24.235 22.5247 24.3111 22.6565 24.443C22.7882 24.5749 22.8659 24.7528 22.8738 24.9408C22.8869 25.1794 22.8764 25.4208 22.8764 25.6608V35.934C22.8705 36.8999 22.5274 37.8322 21.9084 38.5642C21.2895 39.2963 20.435 39.7804 19.4978 39.93C19.4703 39.934 19.4454 39.974 19.4192 39.9967H3.31826L3.31433 39.9993ZM11.4715 33.3487C8.29063 33.3487 5.11104 33.354 1.93013 33.342C1.6381 33.342 1.55691 33.4114 1.56739 33.7114C1.59096 34.418 1.57394 35.1247 1.57525 35.83C1.57655 37.302 2.65301 38.3993 4.10006 38.3993H18.7841C20.2036 38.3993 21.2984 37.2913 21.3023 35.854C21.3023 35.1474 21.2879 34.442 21.3089 33.7367C21.318 33.4354 21.2513 33.3394 20.933 33.3407C17.7783 33.354 14.6249 33.3487 11.4715 33.3487Z" fill="#FC8F01"/>
<path d="M22.0929 21.6478C16.213 21.6464 11.4633 16.7878 11.4646 10.7945C11.4659 4.75189 16.4213 -0.158737 22.3863 0.00392806C27.8563 0.15326 32.7278 4.69723 32.7186 10.8332C32.7198 12.2541 32.4458 13.6612 31.9122 14.9741C31.3786 16.287 30.5959 17.4799 29.6089 18.4844C28.6219 19.4889 27.45 20.2854 26.1603 20.8282C24.8706 21.371 23.4885 21.6495 22.0929 21.6478ZM22.1008 20.0451C27.0836 20.0451 31.1157 15.9078 31.1393 10.8132C31.1616 5.88922 27.208 1.73192 22.3208 1.60658C17.2987 1.47992 13.0361 5.62389 13.0374 10.8305C13.0387 15.8971 17.114 20.0438 22.1008 20.0438V20.0451ZM10.2375 4.17323C9.8054 4.17323 9.37455 4.17856 8.94371 4.17056C8.49846 4.1639 8.19203 3.86923 8.16846 3.44257C8.14227 2.98657 8.41203 2.60524 8.86121 2.58924C9.77591 2.56026 10.6913 2.55893 11.606 2.58524C11.708 2.5896 11.808 2.61479 11.9002 2.65931C11.9924 2.70383 12.0748 2.76677 12.1426 2.84439C12.2104 2.92201 12.2622 3.01273 12.2949 3.11114C12.3276 3.20955 12.3405 3.31365 12.3328 3.41724C12.3066 3.86257 11.9923 4.1639 11.534 4.17056C11.1019 4.1759 10.6697 4.17056 10.2375 4.17056V4.17323ZM11.4083 37.0823C11.2518 37.0825 11.0969 37.0509 10.9526 36.9892C10.8083 36.9274 10.6777 36.8369 10.5683 36.723C10.459 36.609 10.3731 36.4739 10.3159 36.3257C10.2586 36.1774 10.2311 36.0189 10.2349 35.8597C10.235 35.697 10.2673 35.536 10.33 35.3863C10.3928 35.2367 10.4846 35.1015 10.5999 34.9889C10.7153 34.8763 10.8518 34.7886 11.0013 34.7311C11.1508 34.6736 11.3102 34.6475 11.4698 34.6543C11.6263 34.6579 11.7806 34.6932 11.9235 34.7582C12.0665 34.8231 12.1953 34.9164 12.3024 35.0326C12.4096 35.1487 12.4929 35.2855 12.5476 35.4348C12.6023 35.5842 12.6272 35.7431 12.6209 35.9023C12.6205 36.0618 12.5885 36.2196 12.5267 36.3662C12.465 36.5128 12.3748 36.6452 12.2615 36.7554C12.1483 36.8656 12.0143 36.9513 11.8677 37.0075C11.7211 37.0637 11.5648 37.0891 11.4083 37.0823Z" fill="#FC8F01"/>
<path d="M22.9501 8.17323C22.1775 8.17323 21.4049 8.16923 20.6322 8.17323C20.0953 8.17723 19.7312 8.51456 19.7182 9.00522C19.7051 9.52255 20.056 9.87722 20.6257 9.88389C21.6471 9.89455 22.6686 9.88389 23.69 9.88789C25.1436 9.89055 26.2358 10.9452 26.2384 12.3492C26.2384 13.7385 25.1318 14.8078 23.6861 14.8118C23.2081 14.8118 22.9685 15.0518 22.9658 15.5318C22.9606 16.1132 22.6555 16.4785 22.1814 16.4745C21.71 16.4705 21.3996 16.0945 21.3931 15.5212C21.3865 15.0492 21.1574 14.8118 20.7029 14.8118C20.1398 14.8118 19.5767 14.8158 19.0136 14.8118C18.4702 14.8052 18.1467 14.4985 18.1467 14.0012C18.1467 13.5065 18.4715 13.2132 19.028 13.2119C20.5864 13.2105 22.1448 13.2159 23.7018 13.2092C24.4404 13.2065 24.8699 12.5532 24.5439 11.9452C24.3684 11.6185 24.0855 11.4945 23.7293 11.4959C22.6948 11.5012 21.6602 11.5065 20.6257 11.4959C19.6095 11.4852 18.8263 11.0425 18.3824 10.0972C17.9634 9.20656 18.0524 8.32923 18.6338 7.53724C19.1184 6.87457 19.7928 6.56658 20.6073 6.57191C21.3669 6.57591 21.3669 6.57191 21.3905 5.79858C21.4127 5.11725 21.985 4.70926 22.535 4.99192C22.848 5.15192 22.9672 5.42258 22.9672 5.77858C22.9672 6.57324 22.9763 6.57324 23.7686 6.57324C24.3055 6.57324 24.8424 6.56924 25.3793 6.57324C25.873 6.57858 26.2306 6.91591 26.2345 7.36924C26.2384 7.8199 25.8809 8.1679 25.3833 8.1719C24.5727 8.17856 23.762 8.17323 22.9501 8.17323Z" fill="#FC8F01"/>
</svg>
